<svg xmlns="http://www.w3.org/2000/svg" version="1.1" xmlns:xlink="http://www.w3.org/1999/xlink" xmlns:svgjs="http://svgjs.com/svgjs" width="512" height="512" x="0" y="0" viewBox="0 0 512 512.00076" style="enable-background:new 0 0 512 512" xml:space="preserve"><g><path xmlns="http://www.w3.org/2000/svg" d="m90.378906 512h316.386719c30.960937 0 45.625-38.050781 22.761719-58.929688-36.304688-33.15625-94.910156-67.960937-180.953125-67.960937-86.046875 0-144.652344 34.804687-180.957031 67.960937-22.863282 20.878907-8.199219 58.929688 22.761718 58.929688zm0 0" fill="#c2e8ef" data-original="#c2e8ef"></path><path xmlns="http://www.w3.org/2000/svg" d="m429.527344 453.070312c-36.304688-33.15625-94.910156-67.960937-180.953125-67.960937-61.675781 0-109.25 17.878906-144.621094 40.21875 3.269531 20.847656 11.203125 54.769531 30.167969 86.671875h272.644531c30.960937 0 45.625-38.050781 22.761719-58.929688zm0 0" fill="#def4f9" data-original="#def4f9"></path><path xmlns="http://www.w3.org/2000/svg" d="m491.144531 195.203125-41.695312-49.097656 30.890625-66.753907c5.367187-11.597656-2.28125-25.03125-14.996094-26.332031l-80.367188-8.230469 13.914063-25.144531c5.351563-9.675781-2.824219-21.261719-13.734375-19.457031 0 0-92.226562 25.378906-136.265625 25.378906s-136.582031-25.378906-136.582031-25.378906c-10.910156-1.804688-19.089844 9.78125-13.734375 19.460938l13.914062 25.144531-80.367187 8.226562c-12.714844 1.300781-20.363282 14.734375-14.996094 26.332031l30.890625 66.753907-41.695313 49.097656c-9.011718 10.609375-8.304687 26.378906 1.617188 36.140625l48.539062 47.746094-43.957031 62.742187c-10.402343 14.851563-2.007812 35.492188 15.808594 38.863281l129.425781 24.480469h181.953125l129.425781-24.480469c17.816407-3.371093 26.214844-24.011718 15.808594-38.863281l-43.953125-62.742187 48.535157-47.746094c9.929687-9.761719 10.632812-25.53125 1.621093-36.140625zm0 0" fill="#d8d7da" data-original="#d8d7da"></path><path xmlns="http://www.w3.org/2000/svg" d="m197.414062 19.628906c-41.5625-7.5-85.105468-19.441406-85.105468-19.441406-10.910156-1.804688-19.089844 9.78125-13.734375 19.457031l13.914062 25.144531-80.367187 8.230469c-12.714844 1.300781-20.363282 14.734375-14.996094 26.332031l30.890625 66.753907-41.695313 49.097656c-9.011718 10.609375-8.308593 26.378906 1.617188 36.140625l48.539062 47.746094-43.957031 62.742187c-10.402343 14.851563-2.007812 35.492188 15.808594 38.863281l129.425781 24.480469h79.335938c-83.722656-182.71875-59.867188-321.617187-39.675782-385.546875zm0 0" fill="#c6c5ca" data-original="#c6c5ca"></path><path xmlns="http://www.w3.org/2000/svg" d="m133.949219 299.132812c0 29.644532-24.03125 53.675782-53.675781 53.675782-29.644532 0-53.675782-24.03125-53.675782-53.675782 0-29.644531 24.03125-53.675781 53.675782-53.675781 29.644531 0 53.675781 24.03125 53.675781 53.675781zm0 0" fill="#ffaea1" data-original="#ffaea1"></path><path xmlns="http://www.w3.org/2000/svg" d="m470.546875 299.132812c0 29.644532-24.03125 53.675782-53.675781 53.675782-29.640625 0-53.671875-24.03125-53.671875-53.675782 0-29.644531 24.03125-53.675781 53.671875-53.675781 29.644531 0 53.675781 24.03125 53.675781 53.675781zm0 0" fill="#ffcfc2" data-original="#ffcfc2"></path><path xmlns="http://www.w3.org/2000/svg" d="m248.574219 458.03125c-92.566407 0-168.300781-75.734375-168.300781-168.300781v-87.34375c0-92.5625 75.734374-168.296875 168.300781-168.296875 92.5625 0 168.296875 75.734375 168.296875 168.296875v87.34375c0 92.566406-75.734375 168.300781-168.296875 168.300781zm0 0" fill="#ffe2d9" data-original="#ffe2d9"></path><path xmlns="http://www.w3.org/2000/svg" d="m248.574219 34.089844c-92.566407 0-168.300781 75.734375-168.300781 168.300781v87.339844c0 61.582031 33.53125 115.71875 83.222656 145.058593-8.410156-38.714843-7.8125-77.523437-4.378906-109.046874 3.816406-35.011719 21.089843-67.234376 48.09375-89.84375 54.390624-45.542969 70.191406-137.46875 74.484374-198.511719-10.71875-2.164063-21.792968-3.296875-33.121093-3.296875zm0 0" fill="#ffcfc2" data-original="#ffcfc2"></path><path xmlns="http://www.w3.org/2000/svg" d="m331.664062 310.222656c-4.269531 0-7.726562-3.460937-7.726562-7.726562v-12.828125c0-4.265625 3.457031-7.726563 7.726562-7.726563 4.269532 0 7.726563 3.460938 7.726563 7.726563v12.828125c0 4.265625-3.457031 7.726562-7.726563 7.726562zm0 0" fill="#57565c" data-original="#57565c"></path><path xmlns="http://www.w3.org/2000/svg" d="m165.484375 310.222656c-4.269531 0-7.726563-3.460937-7.726563-7.726562v-12.828125c0-4.265625 3.457032-7.726563 7.726563-7.726563 4.265625 0 7.726563 3.460938 7.726563 7.726563v12.828125c0 4.265625-3.460938 7.726562-7.726563 7.726562zm0 0" fill="#57565c" data-original="#57565c"></path><path xmlns="http://www.w3.org/2000/svg" d="m248.574219 25.566406c-220.980469 0-168.300781 219.890625-168.300781 219.890625l64.929687-73.511719 103.371094-50.605468 103.367187 50.605468 64.929688 73.511719s52.683594-219.890625-168.296875-219.890625zm0 0" fill="#d8d7da" data-original="#d8d7da"></path><path xmlns="http://www.w3.org/2000/svg" d="m194.066406 30.859375c-157.183594 33.476563-113.792968 214.597656-113.792968 214.597656l64.929687-73.511719 32.855469-16.085937c-.347656-52.753906 7.617187-95.15625 16.007812-125zm0 0" fill="#c6c5ca" data-original="#c6c5ca"></path><path xmlns="http://www.w3.org/2000/svg" d="m270.761719 141.355469c-5.886719-5.886719-13.710938-9.125-22.03125-9.125-8.320313 0-16.144531 3.238281-22.027344 9.125l-21.851563-21.855469c11.71875-11.71875 27.304688-18.175781 43.882813-18.175781 16.574219 0 32.160156 6.457031 43.878906 18.175781zm0 0" fill="#8e9b84" data-original="#8e9b84"></path><path xmlns="http://www.w3.org/2000/svg" d="m232.859375 130.429688c0 36.21875-29.359375 65.574218-65.574219 65.574218s-65.574218-29.355468-65.574218-65.574218c0-36.214844 29.359374-65.570313 65.574218-65.570313s65.574219 29.355469 65.574219 65.570313zm0 0" fill="#9dad92" data-original="#9dad92"></path><path xmlns="http://www.w3.org/2000/svg" d="m167.285156 165.101562c-19.117187 0-34.667968-15.554687-34.667968-34.667968 0-19.117188 15.550781-34.667969 34.667968-34.667969 19.113282 0 34.667969 15.550781 34.667969 34.667969 0 19.113281-15.554687 34.667968-34.667969 34.667968zm0 0" fill="#ccf8ff" data-original="#ccf8ff"></path><path xmlns="http://www.w3.org/2000/svg" d="m395.4375 130.429688c0 36.21875-29.359375 65.574218-65.574219 65.574218-36.214843 0-65.574219-29.355468-65.574219-65.574218 0-36.214844 29.359376-65.570313 65.574219-65.570313 36.214844 0 65.574219 29.355469 65.574219 65.570313zm0 0" fill="#9dad92" data-original="#9dad92"></path><path xmlns="http://www.w3.org/2000/svg" d="m329.863281 165.101562c-19.117187 0-34.667969-15.554687-34.667969-34.667968 0-19.117188 15.550782-34.667969 34.667969-34.667969 19.117188 0 34.667969 15.550781 34.667969 34.667969 0 19.113281-15.550781 34.667968-34.667969 34.667968zm0 0" fill="#ccf8ff" data-original="#ccf8ff"></path><path xmlns="http://www.w3.org/2000/svg" d="m289.15625 306.878906c-10.027344-7.136718-22.875-7.386718-32.925781-1.703125-4.78125 2.707031-10.535157 2.707031-15.316407 0-10.050781-5.683593-22.898437-5.433593-32.925781 1.703125-13.8125 9.832032-45.351562 49.148438-35.519531 62.957032 7.832031 11.007812 50.585938-5.539063 68.367188-13.535157 4.921874-2.214843 10.550781-2.214843 15.472656 0 17.78125 7.996094 60.53125 24.542969 68.367187 13.535157 9.832031-13.808594-21.707031-53.125-35.519531-62.957032zm0 0" fill="#c6c5ca" data-original="#c6c5ca"></path><g xmlns="http://www.w3.org/2000/svg" fill="#acabb1"><path d="m155.152344 458.03125c0 4.265625-3.460938 7.726562-7.726563 7.726562-4.269531 0-7.726562-3.460937-7.726562-7.726562 0-4.269531 3.457031-7.726562 7.726562-7.726562 4.265625 0 7.726563 3.457031 7.726563 7.726562zm0 0" fill="#acabb1" data-original="#acabb1"></path><path d="m169.574219 485.511719c0 4.265625-3.460938 7.726562-7.726563 7.726562-4.269531 0-7.726562-3.460937-7.726562-7.726562 0-4.269531 3.457031-7.726563 7.726562-7.726563 4.265625 0 7.726563 3.457032 7.726563 7.726563zm0 0" fill="#acabb1" data-original="#acabb1"></path></g></g></svg>
