<svg xmlns="http://www.w3.org/2000/svg" version="1.1" xmlns:xlink="http://www.w3.org/1999/xlink" xmlns:svgjs="http://svgjs.com/svgjs" width="512" height="512" x="0" y="0" viewBox="0 0 480.545 480.545" style="enable-background:new 0 0 512 512" xml:space="preserve" class="">
    <g>
        <path xmlns="http://www.w3.org/2000/svg" style="" d="M421.6,71.2c17.6,3.2,28.8,20,25.6,37.6L380,454.4c-3.2,17.6-20,28.8-37.6,25.6L60,424.8  c-17.6-3.2-28.8-20-25.6-37.6l67.2-345.6c3.2-14.4,15.2-24.8,29.6-25.6c2.4,0,5.6,0,8,0.8L421.6,71.2z" fill="#e7c9ff" data-original="#e7c9ff"></path>
        <path xmlns="http://www.w3.org/2000/svg" style="" d="M352.8,32c17.6,0,32,14.4,32,32v352c0,17.6-14.4,32-32,32h-288c-17.6,0-32-14.4-32-32V64  c0-15.2,10.4-27.2,24-31.2c0,0,0,0,0.8,0C60,32,62.4,32,64.8,32H352.8z" fill="#f3e4ff" data-original="#f3e4ff"></path>
        <path xmlns="http://www.w3.org/2000/svg" style="" d="M168.8,40v160c0,22.4-17.6,40-40,40s-40-17.6-40-40V72c0-4.8,4-8,8-8s8,3.2,8,8v128  c0,12.8,10.4,24,24,24s24-11.2,24-24V40c0-3.2-0.8-5.6-1.6-8c-3.2-9.6-12-16-22.4-16h-32c-10.4,0-19.2,6.4-22.4,16h-9.6  c-2.4,0-4.8,0-7.2,0.8C60.8,14.4,76.8,0,96.8,0h32C148,0,164,13.6,168,32C168.8,34.4,168.8,37.6,168.8,40z" fill="#9f2bfb" data-original="#9f2bfb" class=""></path>
        <g xmlns="http://www.w3.org/2000/svg">
            <path style="" d="M320.8,104h-96c-4.8,0-8-3.2-8-8s3.2-8,8-8h96c4.8,0,8,3.2,8,8S325.6,104,320.8,104z" fill="#e7c9ff" data-original="#e7c9ff"></path>
            <path style="" d="M320.8,168h-96c-4.8,0-8-3.2-8-8s3.2-8,8-8h96c4.8,0,8,3.2,8,8S325.6,168,320.8,168z" fill="#e7c9ff" data-original="#e7c9ff"></path>
            <path style="" d="M256.8,232h-32c-4.8,0-8-3.2-8-8s3.2-8,8-8h32c4.8,0,8,3.2,8,8S261.6,232,256.8,232z" fill="#e7c9ff" data-original="#e7c9ff"></path>
            <path style="" d="M320.8,232h-32c-4.8,0-8-3.2-8-8s3.2-8,8-8h32c4.8,0,8,3.2,8,8S325.6,232,320.8,232z" fill="#e7c9ff" data-original="#e7c9ff"></path>
            <path style="" d="M192.8,328h-96c-4.8,0-8-3.2-8-8s3.2-8,8-8h96c4.8,0,8,3.2,8,8S197.6,328,192.8,328z" fill="#e7c9ff" data-original="#e7c9ff"></path>
            <path style="" d="M320.8,328h-96c-4.8,0-8-3.2-8-8s3.2-8,8-8h96c4.8,0,8,3.2,8,8S325.6,328,320.8,328z" fill="#e7c9ff" data-original="#e7c9ff"></path>
            <path style="" d="M320.8,200h-96c-4.8,0-8-3.2-8-8s3.2-8,8-8h96c4.8,0,8,3.2,8,8S325.6,200,320.8,200z" fill="#e7c9ff" data-original="#e7c9ff"></path>
            <path style="" d="M256.8,296h-160c-4.8,0-8-3.2-8-8s3.2-8,8-8h160c4.8,0,8,3.2,8,8S261.6,296,256.8,296z" fill="#e7c9ff" data-original="#e7c9ff"></path>
            <path style="" d="M320.8,296h-32c-4.8,0-8-3.2-8-8s3.2-8,8-8h32c4.8,0,8,3.2,8,8S325.6,296,320.8,296z" fill="#e7c9ff" data-original="#e7c9ff"></path>
            <path style="" d="M256.8,136h-32c-4.8,0-8-3.2-8-8s3.2-8,8-8h32c4.8,0,8,3.2,8,8S261.6,136,256.8,136z" fill="#e7c9ff" data-original="#e7c9ff"></path>
            <path style="" d="M320.8,136h-32c-4.8,0-8-3.2-8-8s3.2-8,8-8h32c4.8,0,8,3.2,8,8S325.6,136,320.8,136z" fill="#e7c9ff" data-original="#e7c9ff"></path>
            <path style="" d="M320.8,264h-96c-4.8,0-8-3.2-8-8s3.2-8,8-8h96c4.8,0,8,3.2,8,8S325.6,264,320.8,264z" fill="#e7c9ff" data-original="#e7c9ff"></path>
        </g>
    </g>
</svg>
