<svg xmlns="http://www.w3.org/2000/svg" version="1.1" xmlns:xlink="http://www.w3.org/1999/xlink" xmlns:svgjs="http://svgjs.com/svgjs" width="512" height="512" x="0" y="0" viewBox="0 0 512 512" style="enable-background:new 0 0 512 512" xml:space="preserve" class=""><g><linearGradient xmlns="http://www.w3.org/2000/svg" id="SVGID_1_" gradientUnits="userSpaceOnUse" x1="256" x2="256" y1="512" y2="0"><stop offset="0" stop-color="#5558ff"></stop><stop offset="1" stop-color="#00c0ff"></stop></linearGradient><linearGradient xmlns="http://www.w3.org/2000/svg" id="SVGID_2_" gradientUnits="userSpaceOnUse" x1="301" x2="301" y1="512" y2="151"><stop offset="0" stop-color="#addcff"></stop><stop offset=".5028" stop-color="#eaf6ff"></stop><stop offset="1" stop-color="#eaf6ff"></stop></linearGradient><g xmlns="http://www.w3.org/2000/svg"><g><g><path d="m436 0h-30c-8.401 0-15 6.599-15 15 0 8.399-6.599 15-15 15s-15-6.601-15-15c0-8.401-6.599-15-15-15h-60c-8.401 0-15 6.599-15 15 0 8.399-6.599 15-15 15s-15-6.601-15-15c0-8.401-6.599-15-15-15h-60c-8.401 0-15 6.599-15 15 0 8.399-6.599 15-15 15s-15-6.601-15-15c0-8.401-6.599-15-15-15h-30c-24.902 0-45 20.1-45 45v422c0 24.898 20.098 45 45 45h300l105-105v-362c0-24.9-20.098-45-45-45z" fill="url(#SVGID_1_)" data-original="url(#SVGID_1_)"></path></g></g><g><g><path d="m406 407c-16.501 0-30 13.5-30 30v75c3.9 0 7.8-1.5 10.499-4.501l90-90c3-2.699 4.501-6.599 4.501-10.499zm-270-166h240c8.291 0 15-6.709 15-15s-6.709-15-15-15h-240c-8.291 0-15 6.709-15 15s6.709 15 15 15zm0-60h240c8.291 0 15-6.709 15-15s-6.709-15-15-15h-240c-8.291 0-15 6.709-15 15s6.709 15 15 15zm0 120h240c8.291 0 15-6.709 15-15s-6.709-15-15-15h-240c-8.291 0-15 6.709-15 15s6.709 15 15 15zm120 30h-120c-8.291 0-15 6.709-15 15s6.709 15 15 15h120c8.291 0 15-6.709 15-15s-6.709-15-15-15z" fill="url(#SVGID_2_)" data-original="url(#SVGID_2_)"></path></g></g></g></g></svg>
