<svg xmlns="http://www.w3.org/2000/svg" version="1.1" xmlns:xlink="http://www.w3.org/1999/xlink" xmlns:svgjs="http://svgjs.com/svgjs" width="512" height="512" x="0" y="0" viewBox="0 0 312.513 312.513" style="enable-background:new 0 0 512 512" xml:space="preserve">
  <g>
    <g xmlns="http://www.w3.org/2000/svg">
      <circle cx="97.106" cy="210.198" r="8.35" fill="#f8f8f2"></circle>
      <path d="M286.322,135.845H148.707V63.583c0-14.442-11.749-26.191-26.191-26.191H26.191C11.749,37.392,0,49.141,0,63.583V258.36   c0,14.442,11.749,26.191,26.191,26.191h65.354h22.618h172.16c14.442,0,26.191-11.75,26.191-26.191v-96.324   C312.513,147.594,300.764,135.845,286.322,135.845z M126.568,153.845h13.129c0.003,0,0.006,0,0.01,0s0.006,0,0.01,0h121.511   v112.707h-134.66V153.845z M91.544,135.845c-14.442,0-26.191,11.75-26.191,26.191v61.301H18V88.677h112.707v47.167H91.544z    M26.191,55.392h96.325c4.517,0,8.191,3.674,8.191,8.191v7.094H18v-7.094C18,59.066,21.674,55.392,26.191,55.392z M18,258.36   v-17.023h47.353v17.023c0,2.861,0.468,5.612,1.319,8.191H26.191C21.674,266.552,18,262.877,18,258.36z M83.353,258.36v-96.324   c0-4.517,3.675-8.191,8.191-8.191h17.023v112.707H91.544C87.028,266.552,83.353,262.877,83.353,258.36z M294.513,258.36   c0,4.517-3.674,8.191-8.191,8.191h-7.094V153.845h7.094c4.517,0,8.191,3.675,8.191,8.191V258.36z" fill="#f8f8f2"></path>
      <path d="M193.506,79.835c1.464,1.464,3.384,2.197,5.303,2.197s3.839-0.732,5.303-2.197c2.929-2.929,2.929-7.678,0-10.606   l-5.774-5.774c14.772,3.285,26.481,14.78,30.072,29.436l-5.583-5.583c-2.928-2.929-7.677-2.929-10.606,0   c-2.929,2.929-2.929,7.678,0,10.606l19.537,19.538c1.406,1.407,3.314,2.197,5.303,2.197s3.897-0.79,5.303-2.197l19.534-19.534   c2.929-2.929,2.929-7.678,0-10.606c-2.929-2.929-7.678-2.929-10.606,0L244,94.604c-3.454-24.236-22.793-43.409-47.106-46.618   l7.222-7.222c2.929-2.929,2.929-7.678,0-10.606c-2.929-2.929-7.678-2.929-10.606,0l-19.537,19.538   c-1.407,1.407-2.197,3.314-2.197,5.303s0.79,3.897,2.197,5.303L193.506,79.835z" fill="#f8f8f2"></path>
    </g>
  </g>
</svg>
