<svg width="1024" height="1024" viewBox="0 0 1024 1024" fill="none" xmlns="http://www.w3.org/2000/svg">
<g filter="url(#filter0_d_1_2)">
<rect x="100" y="100" width="824" height="824" rx="184" fill="#14141B"/>
</g>
<g filter="url(#filter1_d_1_2)">
<path d="M792.195 267.953C817.644 272.581 833.839 296.873 829.212 322.322L732.043 822.051C727.415 847.5 703.123 863.695 677.674 859.068L269.33 779.25C243.881 774.623 227.686 750.331 232.314 724.882L329.483 225.153C334.11 204.33 351.462 189.292 372.284 188.136C375.754 188.136 380.381 188.136 383.852 189.292L792.195 267.953Z" fill="#E7C9FF"/>
<path d="M692.712 211.271C718.161 211.271 738.983 232.093 738.983 257.542V766.526C738.983 791.975 718.161 812.797 692.712 812.797H276.271C250.822 812.797 230 791.975 230 766.526V257.542C230 235.564 245.038 218.212 264.703 212.428C264.703 212.428 264.703 212.428 265.86 212.428C269.331 211.271 272.801 211.271 276.271 211.271H692.712Z" fill="#F3E4FF"/>
<path d="M426.653 222.839V454.195C426.653 486.585 401.203 512.034 368.814 512.034C336.424 512.034 310.975 486.585 310.975 454.195V269.11C310.975 262.17 316.759 257.542 322.542 257.542C328.326 257.542 334.11 262.17 334.11 269.11V454.195C334.11 472.703 349.148 488.898 368.814 488.898C388.479 488.898 403.517 472.703 403.517 454.195V222.839C403.517 218.212 402.36 214.742 401.203 211.271C396.576 197.39 383.852 188.136 368.814 188.136H322.542C307.504 188.136 294.78 197.39 290.153 211.271H276.271C272.801 211.271 269.331 211.271 265.86 212.428C270.487 185.822 293.623 165 322.542 165H368.814C396.576 165 419.712 184.665 425.496 211.271C426.653 214.742 426.653 219.369 426.653 222.839Z" fill="#9F2BFB"/>
<path d="M646.441 315.381H507.627C500.687 315.381 496.059 310.754 496.059 303.814C496.059 296.873 500.687 292.246 507.627 292.246H646.441C653.382 292.246 658.009 296.873 658.009 303.814C658.009 310.754 653.382 315.381 646.441 315.381Z" fill="#E7C9FF"/>
<path d="M646.441 407.924H507.627C500.687 407.924 496.059 403.297 496.059 396.356C496.059 389.415 500.687 384.788 507.627 384.788H646.441C653.382 384.788 658.009 389.415 658.009 396.356C658.009 403.297 653.382 407.924 646.441 407.924Z" fill="#E7C9FF"/>
<path d="M553.898 500.466H507.627C500.687 500.466 496.059 495.839 496.059 488.898C496.059 481.958 500.687 477.331 507.627 477.331H553.898C560.839 477.331 565.466 481.958 565.466 488.898C565.466 495.839 560.839 500.466 553.898 500.466Z" fill="#E7C9FF"/>
<path d="M646.441 500.466H600.17C593.229 500.466 588.602 495.839 588.602 488.898C588.602 481.958 593.229 477.331 600.17 477.331H646.441C653.382 477.331 658.009 481.958 658.009 488.898C658.009 495.839 653.382 500.466 646.441 500.466Z" fill="#E7C9FF"/>
<path d="M461.356 639.28H322.542C315.602 639.28 310.975 634.653 310.975 627.712C310.975 620.772 315.602 616.144 322.542 616.144H461.356C468.297 616.144 472.924 620.772 472.924 627.712C472.924 634.653 468.297 639.28 461.356 639.28Z" fill="#E7C9FF"/>
<path d="M646.441 639.28H507.627C500.687 639.28 496.059 634.653 496.059 627.712C496.059 620.772 500.687 616.144 507.627 616.144H646.441C653.382 616.144 658.009 620.772 658.009 627.712C658.009 634.653 653.382 639.28 646.441 639.28Z" fill="#E7C9FF"/>
<path d="M646.441 454.195H507.627C500.687 454.195 496.059 449.568 496.059 442.627C496.059 435.687 500.687 431.059 507.627 431.059H646.441C653.382 431.059 658.009 435.687 658.009 442.627C658.009 449.568 653.382 454.195 646.441 454.195Z" fill="#E7C9FF"/>
<path d="M553.898 593.009H322.542C315.602 593.009 310.975 588.382 310.975 581.441C310.975 574.5 315.602 569.873 322.542 569.873H553.898C560.839 569.873 565.466 574.5 565.466 581.441C565.466 588.382 560.839 593.009 553.898 593.009Z" fill="#E7C9FF"/>
<path d="M646.441 593.009H600.17C593.229 593.009 588.602 588.382 588.602 581.441C588.602 574.5 593.229 569.873 600.17 569.873H646.441C653.382 569.873 658.009 574.5 658.009 581.441C658.009 588.382 653.382 593.009 646.441 593.009Z" fill="#E7C9FF"/>
<path d="M553.898 361.653H507.627C500.687 361.653 496.059 357.026 496.059 350.085C496.059 343.144 500.687 338.517 507.627 338.517H553.898C560.839 338.517 565.466 343.144 565.466 350.085C565.466 357.026 560.839 361.653 553.898 361.653Z" fill="#E7C9FF"/>
<path d="M646.441 361.653H600.17C593.229 361.653 588.602 357.026 588.602 350.085C588.602 343.144 593.229 338.517 600.17 338.517H646.441C653.382 338.517 658.009 343.144 658.009 350.085C658.009 357.026 653.382 361.653 646.441 361.653Z" fill="#E7C9FF"/>
<path d="M646.441 546.738H507.627C500.687 546.738 496.059 542.11 496.059 535.17C496.059 528.229 500.687 523.602 507.627 523.602H646.441C653.382 523.602 658.009 528.229 658.009 535.17C658.009 542.11 653.382 546.738 646.441 546.738Z" fill="#E7C9FF"/>
</g>
<defs>
<filter id="filter0_d_1_2" x="78" y="89" width="868" height="868" filterUnits="userSpaceOnUse" color-interpolation-filters="sRGB">
<feFlood flood-opacity="0" result="BackgroundImageFix"/>
<feColorMatrix in="SourceAlpha" type="matrix" values="0 0 0 0 0 0 0 0 0 0 0 0 0 0 0 0 0 0 127 0" result="hardAlpha"/>
<feOffset dy="11"/>
<feGaussianBlur stdDeviation="11"/>
<feColorMatrix type="matrix" values="0 0 0 0 0 0 0 0 0 0 0 0 0 0 0 0 0 0 0.28 0"/>
<feBlend mode="normal" in2="BackgroundImageFix" result="effect1_dropShadow_1_2"/>
<feBlend mode="normal" in="SourceGraphic" in2="effect1_dropShadow_1_2" result="shape"/>
</filter>
<filter id="filter1_d_1_2" x="208" y="154" width="644" height="738.856" filterUnits="userSpaceOnUse" color-interpolation-filters="sRGB">
<feFlood flood-opacity="0" result="BackgroundImageFix"/>
<feColorMatrix in="SourceAlpha" type="matrix" values="0 0 0 0 0 0 0 0 0 0 0 0 0 0 0 0 0 0 127 0" result="hardAlpha"/>
<feOffset dy="11"/>
<feGaussianBlur stdDeviation="11"/>
<feComposite in2="hardAlpha" operator="out"/>
<feColorMatrix type="matrix" values="0 0 0 0 0 0 0 0 0 0 0 0 0 0 0 0 0 0 0.28 0"/>
<feBlend mode="normal" in2="BackgroundImageFix" result="effect1_dropShadow_1_2"/>
<feBlend mode="normal" in="SourceGraphic" in2="effect1_dropShadow_1_2" result="shape"/>
</filter>
</defs>
</svg>
