<svg width="1024" height="1024" viewBox="0 0 1024 1024" fill="none" xmlns="http://www.w3.org/2000/svg">
<g filter="url(#filter0_d_1_2)">
<rect x="64.5" y="74.5" width="895" height="895" rx="184" fill="url(#paint0_linear_1_2)"/>
</g>
<g opacity="0.32" filter="url(#filter1_f_1_2)">
<path d="M768.77 277.664C793.159 282.098 808.679 305.378 804.245 329.767L711.124 808.674C706.69 833.063 683.41 848.583 659.021 844.149L267.692 767.657C243.303 763.222 227.783 739.942 232.217 715.553L325.338 236.646C329.772 216.692 346.401 202.28 366.355 201.172C369.681 201.172 374.116 201.172 377.441 202.28L768.77 277.664Z" fill="#E7C9FF"/>
<path d="M673.432 223.343C697.821 223.343 717.776 243.298 717.776 267.686V755.462C717.776 779.851 697.821 799.805 673.432 799.805H274.343C249.954 799.805 230 779.851 230 755.462V267.686C230 246.623 244.412 229.995 263.257 224.452C263.257 224.452 263.257 224.452 264.366 224.452C267.692 223.343 271.018 223.343 274.343 223.343H673.432Z" fill="#F3E4FF"/>
<path d="M418.459 234.429V456.145C418.459 487.186 394.07 511.574 363.03 511.574C331.989 511.574 307.601 487.186 307.601 456.145V278.772C307.601 272.121 313.144 267.686 318.687 267.686C324.229 267.686 329.772 272.121 329.772 278.772V456.145C329.772 473.883 344.184 489.403 363.03 489.403C381.876 489.403 396.287 473.883 396.287 456.145V234.429C396.287 229.995 395.179 226.669 394.07 223.343C389.636 210.04 377.441 201.172 363.03 201.172H318.687C304.275 201.172 292.081 210.04 287.646 223.343H274.343C271.018 223.343 267.692 223.343 264.366 224.452C268.8 198.954 290.972 179 318.687 179H363.03C389.636 179 411.807 197.846 417.35 223.343C418.459 226.669 418.459 231.103 418.459 234.429Z" fill="#9F2BFB"/>
<path d="M629.089 323.116H496.059C489.408 323.116 484.974 318.681 484.974 312.03C484.974 305.378 489.408 300.944 496.059 300.944H629.089C635.741 300.944 640.175 305.378 640.175 312.03C640.175 318.681 635.741 323.116 629.089 323.116Z" fill="#E7C9FF"/>
<path d="M629.089 411.802H496.059C489.408 411.802 484.974 407.368 484.974 400.716C484.974 394.065 489.408 389.63 496.059 389.63H629.089C635.741 389.63 640.175 394.065 640.175 400.716C640.175 407.368 635.741 411.802 629.089 411.802Z" fill="#E7C9FF"/>
<path d="M540.403 500.488H496.059C489.408 500.488 484.974 496.054 484.974 489.403C484.974 482.751 489.408 478.317 496.059 478.317H540.403C547.054 478.317 551.488 482.751 551.488 489.403C551.488 496.054 547.054 500.488 540.403 500.488Z" fill="#E7C9FF"/>
<path d="M629.089 500.488H584.746C578.094 500.488 573.66 496.054 573.66 489.403C573.66 482.751 578.094 478.317 584.746 478.317H629.089C635.741 478.317 640.175 482.751 640.175 489.403C640.175 496.054 635.741 500.488 629.089 500.488Z" fill="#E7C9FF"/>
<path d="M451.716 633.518H318.686C312.035 633.518 307.601 629.084 307.601 622.433C307.601 615.781 312.035 611.347 318.686 611.347H451.716C458.368 611.347 462.802 615.781 462.802 622.433C462.802 629.084 458.368 633.518 451.716 633.518Z" fill="#E7C9FF"/>
<path d="M629.089 633.518H496.059C489.408 633.518 484.974 629.084 484.974 622.433C484.974 615.781 489.408 611.347 496.059 611.347H629.089C635.741 611.347 640.175 615.781 640.175 622.433C640.175 629.084 635.741 633.518 629.089 633.518Z" fill="#E7C9FF"/>
<path d="M629.089 456.145H496.059C489.408 456.145 484.974 451.711 484.974 445.059C484.974 438.408 489.408 433.974 496.059 433.974H629.089C635.741 433.974 640.175 438.408 640.175 445.059C640.175 451.711 635.741 456.145 629.089 456.145Z" fill="#E7C9FF"/>
<path d="M540.403 589.175H318.686C312.035 589.175 307.601 584.741 307.601 578.089C307.601 571.438 312.035 567.003 318.686 567.003H540.403C547.054 567.003 551.488 571.438 551.488 578.089C551.488 584.741 547.054 589.175 540.403 589.175Z" fill="#E7C9FF"/>
<path d="M629.089 589.175H584.746C578.094 589.175 573.66 584.741 573.66 578.089C573.66 571.438 578.094 567.003 584.746 567.003H629.089C635.741 567.003 640.175 571.438 640.175 578.089C640.175 584.741 635.741 589.175 629.089 589.175Z" fill="#E7C9FF"/>
<path d="M540.403 367.459H496.059C489.408 367.459 484.974 363.024 484.974 356.373C484.974 349.722 489.408 345.287 496.059 345.287H540.403C547.054 345.287 551.488 349.722 551.488 356.373C551.488 363.024 547.054 367.459 540.403 367.459Z" fill="#E7C9FF"/>
<path d="M629.089 367.459H584.746C578.094 367.459 573.66 363.024 573.66 356.373C573.66 349.722 578.094 345.287 584.746 345.287H629.089C635.741 345.287 640.175 349.722 640.175 356.373C640.175 363.024 635.741 367.459 629.089 367.459Z" fill="#E7C9FF"/>
<path d="M629.089 544.832H496.059C489.408 544.832 484.974 540.397 484.974 533.746C484.974 527.094 489.408 522.66 496.059 522.66H629.089C635.741 522.66 640.175 527.094 640.175 533.746C640.175 540.397 635.741 544.832 629.089 544.832Z" fill="#E7C9FF"/>
</g>
<g filter="url(#filter2_d_1_2)">
<path d="M768.77 277.664C793.159 282.098 808.679 305.378 804.245 329.767L711.124 808.674C706.69 833.063 683.41 848.583 659.021 844.149L267.692 767.657C243.303 763.222 227.783 739.942 232.217 715.553L325.338 236.646C329.772 216.692 346.401 202.28 366.355 201.172C369.681 201.172 374.116 201.172 377.441 202.28L768.77 277.664Z" fill="#E7C9FF"/>
<path d="M673.432 223.343C697.821 223.343 717.776 243.298 717.776 267.686V755.462C717.776 779.851 697.821 799.805 673.432 799.805H274.343C249.954 799.805 230 779.851 230 755.462V267.686C230 246.623 244.412 229.995 263.257 224.452C263.257 224.452 263.257 224.452 264.366 224.452C267.692 223.343 271.018 223.343 274.343 223.343H673.432Z" fill="#F3E4FF"/>
<path d="M418.459 234.429V456.145C418.459 487.186 394.07 511.574 363.03 511.574C331.989 511.574 307.601 487.186 307.601 456.145V278.772C307.601 272.121 313.144 267.686 318.687 267.686C324.229 267.686 329.772 272.121 329.772 278.772V456.145C329.772 473.883 344.184 489.403 363.03 489.403C381.876 489.403 396.287 473.883 396.287 456.145V234.429C396.287 229.995 395.179 226.669 394.07 223.343C389.636 210.04 377.441 201.172 363.03 201.172H318.687C304.275 201.172 292.081 210.04 287.646 223.343H274.343C271.018 223.343 267.692 223.343 264.366 224.452C268.8 198.954 290.972 179 318.687 179H363.03C389.636 179 411.807 197.846 417.35 223.343C418.459 226.669 418.459 231.103 418.459 234.429Z" fill="#9F2BFB"/>
<path d="M629.089 323.116H496.059C489.408 323.116 484.974 318.681 484.974 312.03C484.974 305.378 489.408 300.944 496.059 300.944H629.089C635.741 300.944 640.175 305.378 640.175 312.03C640.175 318.681 635.741 323.116 629.089 323.116Z" fill="#E7C9FF"/>
<path d="M629.089 411.802H496.059C489.408 411.802 484.974 407.368 484.974 400.716C484.974 394.065 489.408 389.63 496.059 389.63H629.089C635.741 389.63 640.175 394.065 640.175 400.716C640.175 407.368 635.741 411.802 629.089 411.802Z" fill="#E7C9FF"/>
<path d="M540.403 500.488H496.059C489.408 500.488 484.974 496.054 484.974 489.403C484.974 482.751 489.408 478.317 496.059 478.317H540.403C547.054 478.317 551.488 482.751 551.488 489.403C551.488 496.054 547.054 500.488 540.403 500.488Z" fill="#E7C9FF"/>
<path d="M629.089 500.488H584.746C578.094 500.488 573.66 496.054 573.66 489.403C573.66 482.751 578.094 478.317 584.746 478.317H629.089C635.741 478.317 640.175 482.751 640.175 489.403C640.175 496.054 635.741 500.488 629.089 500.488Z" fill="#E7C9FF"/>
<path d="M451.716 633.518H318.686C312.035 633.518 307.601 629.084 307.601 622.433C307.601 615.781 312.035 611.347 318.686 611.347H451.716C458.368 611.347 462.802 615.781 462.802 622.433C462.802 629.084 458.368 633.518 451.716 633.518Z" fill="#E7C9FF"/>
<path d="M629.089 633.518H496.059C489.408 633.518 484.974 629.084 484.974 622.433C484.974 615.781 489.408 611.347 496.059 611.347H629.089C635.741 611.347 640.175 615.781 640.175 622.433C640.175 629.084 635.741 633.518 629.089 633.518Z" fill="#E7C9FF"/>
<path d="M629.089 456.145H496.059C489.408 456.145 484.974 451.711 484.974 445.059C484.974 438.408 489.408 433.974 496.059 433.974H629.089C635.741 433.974 640.175 438.408 640.175 445.059C640.175 451.711 635.741 456.145 629.089 456.145Z" fill="#E7C9FF"/>
<path d="M540.403 589.175H318.686C312.035 589.175 307.601 584.741 307.601 578.089C307.601 571.438 312.035 567.003 318.686 567.003H540.403C547.054 567.003 551.488 571.438 551.488 578.089C551.488 584.741 547.054 589.175 540.403 589.175Z" fill="#E7C9FF"/>
<path d="M629.089 589.175H584.746C578.094 589.175 573.66 584.741 573.66 578.089C573.66 571.438 578.094 567.003 584.746 567.003H629.089C635.741 567.003 640.175 571.438 640.175 578.089C640.175 584.741 635.741 589.175 629.089 589.175Z" fill="#E7C9FF"/>
<path d="M540.403 367.459H496.059C489.408 367.459 484.974 363.024 484.974 356.373C484.974 349.722 489.408 345.287 496.059 345.287H540.403C547.054 345.287 551.488 349.722 551.488 356.373C551.488 363.024 547.054 367.459 540.403 367.459Z" fill="#E7C9FF"/>
<path d="M629.089 367.459H584.746C578.094 367.459 573.66 363.024 573.66 356.373C573.66 349.722 578.094 345.287 584.746 345.287H629.089C635.741 345.287 640.175 349.722 640.175 356.373C640.175 363.024 635.741 367.459 629.089 367.459Z" fill="#E7C9FF"/>
<path d="M629.089 544.832H496.059C489.408 544.832 484.974 540.397 484.974 533.746C484.974 527.094 489.408 522.66 496.059 522.66H629.089C635.741 522.66 640.175 527.094 640.175 533.746C640.175 540.397 635.741 544.832 629.089 544.832Z" fill="#E7C9FF"/>
</g>
<defs>
<filter id="filter0_d_1_2" x="42.5" y="63.5" width="939" height="939" filterUnits="userSpaceOnUse" color-interpolation-filters="sRGB">
<feFlood flood-opacity="0" result="BackgroundImageFix"/>
<feColorMatrix in="SourceAlpha" type="matrix" values="0 0 0 0 0 0 0 0 0 0 0 0 0 0 0 0 0 0 127 0" result="hardAlpha"/>
<feOffset dy="11"/>
<feGaussianBlur stdDeviation="11"/>
<feColorMatrix type="matrix" values="0 0 0 0 0 0 0 0 0 0 0 0 0 0 0 0 0 0 0.28 0"/>
<feBlend mode="normal" in2="BackgroundImageFix" result="effect1_dropShadow_1_2"/>
<feBlend mode="normal" in="SourceGraphic" in2="effect1_dropShadow_1_2" result="shape"/>
</filter>
<filter id="filter1_f_1_2" x="102" y="51" width="831" height="921.904" filterUnits="userSpaceOnUse" color-interpolation-filters="sRGB">
<feFlood flood-opacity="0" result="BackgroundImageFix"/>
<feBlend mode="normal" in="SourceGraphic" in2="BackgroundImageFix" result="shape"/>
<feGaussianBlur stdDeviation="64" result="effect1_foregroundBlur_1_2"/>
</filter>
<filter id="filter2_d_1_2" x="198" y="158" width="639" height="729.904" filterUnits="userSpaceOnUse" color-interpolation-filters="sRGB">
<feFlood flood-opacity="0" result="BackgroundImageFix"/>
<feColorMatrix in="SourceAlpha" type="matrix" values="0 0 0 0 0 0 0 0 0 0 0 0 0 0 0 0 0 0 127 0" result="hardAlpha"/>
<feOffset dy="11"/>
<feGaussianBlur stdDeviation="16"/>
<feComposite in2="hardAlpha" operator="out"/>
<feColorMatrix type="matrix" values="0 0 0 0 0 0 0 0 0 0 0 0 0 0 0 0 0 0 0.25 0"/>
<feBlend mode="normal" in2="BackgroundImageFix" result="effect1_dropShadow_1_2"/>
<feBlend mode="normal" in="SourceGraphic" in2="effect1_dropShadow_1_2" result="shape"/>
</filter>
<linearGradient id="paint0_linear_1_2" x1="512" y1="74.5" x2="512" y2="969.5" gradientUnits="userSpaceOnUse">
<stop stop-color="#44475A"/>
<stop offset="0.479167" stop-color="#22212C"/>
<stop offset="1" stop-color="#14141B"/>
</linearGradient>
</defs>
</svg>
